<svg width="100" height="100" viewBox="0 0 100 100" fill="none" xmlns="http://www.w3.org/2000/svg">
<g clip-path="url(#clip0_807_75)">
<path d="M94.7392 29.3237C94.7385 27.6467 94.3799 26.1647 93.6545 24.8928C92.942 23.6421 91.875 22.5939 90.4438 21.7651C78.6295 14.9529 66.8038 8.16159 54.9934 1.34249C51.8094 -0.495703 48.7222 -0.428689 45.5618 1.43589C40.8594 4.20916 17.316 17.6977 10.3003 21.7612C7.41111 23.4338 6.00521 25.9935 6.00451 29.3206C6 43.0203 6.00451 56.7196 6 70.4196C6 72.0599 6.3441 73.513 7.0375 74.7658C7.75035 76.0543 8.83229 77.1314 10.2965 77.979C17.3125 82.0425 40.859 95.53 45.5604 98.3039C48.7222 100.17 51.8094 100.236 54.9944 98.3973C66.8052 91.5779 78.6316 84.7869 90.4476 77.9748C91.9118 77.1276 92.9938 76.0498 93.7066 74.7623C94.399 73.5095 94.7438 72.0564 94.7438 70.4158C94.7438 70.4158 94.7438 43.0237 94.7392 29.3237Z" fill="#A179DC"/>
<path d="M50.5076 49.7366L7.03748 74.7657C7.75032 76.0543 8.83227 77.1314 10.2965 77.9789C17.3125 82.0425 40.859 95.53 45.5604 98.3039C48.7222 100.17 51.8094 100.236 54.9944 98.3973C66.8052 91.5779 78.6316 84.7869 90.4475 77.9748C91.9118 77.1275 92.9937 76.0498 93.7066 74.7623L50.5076 49.7366Z" fill="#280068"/>
<path d="M94.7392 29.3237C94.7385 27.6466 94.3799 26.1647 93.6545 24.8928L50.5076 49.7366L93.7066 74.7623C94.3989 73.5095 94.743 72.0564 94.7437 70.4157C94.7437 70.4157 94.7437 43.0237 94.7392 29.3237Z" fill="#390091"/>
<path d="M76.1015 40.3799V45.0582H80.7799V40.3799H83.1191V45.0582H87.7974V47.3974H83.1191V52.0758H87.7974V54.415H83.1191V59.0933H80.7799V54.415H76.1015V59.0933H73.7624V54.415H69.084V52.0758H73.7624V47.3974H69.084V45.0582H73.7624V40.3799H76.1015ZM80.7799 47.3974H76.1015V52.0758H80.7799V47.3974Z" fill="white"/>
<path d="M50.6031 16.884C62.8058 16.884 73.4597 23.5112 79.1662 33.3618L79.1105 33.267L64.7534 41.5337C61.9247 36.7443 56.739 33.5122 50.7904 33.4456L50.6031 33.4446C41.5317 33.4446 34.1773 40.7985 34.1773 49.8699C34.1773 52.8364 34.9682 55.6172 36.3437 58.019C39.1749 62.9618 44.4974 66.2956 50.6031 66.2956C56.7464 66.2956 62.0992 62.9194 64.9161 57.9238L64.8477 58.0437L79.1832 66.3486C73.5394 76.1158 63.0314 82.7225 50.9705 82.8542L50.6031 82.8562C38.3619 82.8562 27.6776 76.1882 21.9855 66.2855C19.2067 61.4511 17.6168 55.8465 17.6168 49.8699C17.6168 31.6525 32.3849 16.884 50.6031 16.884Z" fill="white"/>
</g>
<defs>
<clipPath id="clip0_807_75">
<rect width="88.8889" height="100" fill="white" transform="translate(6)"/>
</clipPath>
</defs>
</svg>
