<svg width="100" height="100" viewBox="0 0 100 100" fill="none" xmlns="http://www.w3.org/2000/svg">
<path d="M31.0153 61.3155V39.437H32.2021V42.8785C32.3422 42.7259 32.4716 42.5638 32.5894 42.3934C33.5806 40.337 35.6711 39.0392 37.9534 39.0649C40.6591 38.9842 42.8579 39.9858 44.15 42.3934C44.9723 43.8891 45.4247 45.5598 45.4696 47.2661C45.5146 48.9723 45.1506 50.6645 44.4083 52.2014C43.2044 54.8996 40.231 56.2411 37.0477 55.7483C36.057 55.6641 35.1032 55.3331 34.2734 54.7855C33.4435 54.2379 32.7641 53.4912 32.297 52.6135V61.3146L31.0153 61.3155ZM32.2021 47.1764L32.4679 49.7454C32.9369 52.6695 34.6657 54.3974 37.38 54.722C38.6546 54.9316 39.9625 54.6926 41.0807 54.0459C42.1989 53.3991 43.0581 52.3845 43.512 51.1752C44.5677 48.6593 44.4899 45.8112 43.3032 43.3542C42.8187 42.27 41.9946 41.3731 40.9553 40.7988C39.916 40.2245 38.718 40.0041 37.5423 40.1709C36.4388 40.2512 35.3877 40.6731 34.5349 41.3782C33.6822 42.0832 33.0703 43.0363 32.784 44.1051C32.5313 45.1165 32.337 46.1417 32.2021 47.1754V47.1764ZM69.7007 50.1498C69.5207 51.6903 68.7874 53.1129 67.6371 54.1532C66.4868 55.1935 64.9979 55.7806 63.4471 55.8053C58.4705 56.0559 56.135 52.7511 55.7638 48.9375C55.5057 46.8665 55.8419 44.7647 56.7331 42.8776C57.3534 41.583 58.3698 40.5195 59.635 39.8412C60.9001 39.1628 62.3484 38.9049 63.7699 39.1047C65.1214 39.2196 66.4024 39.7566 67.4319 40.6396C68.4613 41.5227 69.1869 42.7072 69.5061 44.0254C69.7589 45.2262 69.945 46.4401 70.0634 47.6615H56.9932C56.7512 51.1191 58.6091 53.8989 61.2427 54.5692C64.5228 55.3762 67.3263 53.9549 68.344 50.8362C68.57 50.0359 68.982 49.9229 69.7093 50.1498H69.7007ZM56.9838 46.5545H68.6744C68.6013 42.8709 66.3076 40.1937 63.1965 40.1633C59.6838 40.1063 57.1366 42.6763 56.9838 46.5545ZM72.1169 50.2305H73.2628C73.3049 51.0747 73.579 51.891 74.0551 52.5895C74.5311 53.2879 75.1906 53.8416 75.9609 54.1894C76.9282 54.6248 77.9812 54.8363 79.0416 54.8084C80.102 54.7804 81.1424 54.5137 82.0854 54.0281C82.5994 53.7966 83.0301 53.4129 83.319 52.9289C83.608 52.4448 83.7414 51.8837 83.7012 51.3214C83.7308 50.779 83.5828 50.2419 83.2795 49.7913C82.9763 49.3407 82.5344 49.0013 82.0208 48.8245C80.7601 48.3555 79.4195 48.0973 78.135 47.6852C76.7984 47.3047 75.4914 46.8268 74.2245 46.2555C72.1549 45.2453 72.0267 41.3111 74.3698 40.0655C75.5695 39.3885 76.9197 39.0227 78.2971 39.0015C79.6745 38.9803 81.0353 39.3043 82.2553 39.944C83.7686 40.7794 84.6051 42.4665 84.3563 44.1782H83.3737C83.3737 44.1308 83.2845 44.089 83.2845 44.0406C83.1629 40.9076 80.5294 39.9278 77.7021 40.2032C76.8477 40.2981 76.0378 40.5563 75.2783 40.938C74.8218 41.1465 74.4413 41.4917 74.1896 41.926C73.9378 42.3602 73.8273 42.8619 73.8732 43.3618C73.8742 43.8619 74.0301 44.3496 74.3194 44.7576C74.6088 45.1656 75.0174 45.4739 75.4891 45.6403C76.7233 46.0931 78.0334 46.3836 79.3104 46.7387L82.3958 47.5457C83.0971 47.7759 83.7121 48.2135 84.1592 48.8007C84.6064 49.3879 84.8649 50.0971 84.9003 50.8343C85.1472 52.491 84.3022 54.1192 82.8079 54.8739C80.1097 56.4006 75.6657 55.9971 73.6862 54.067C72.6732 53.0483 72.1084 51.665 72.1197 50.2296L72.1169 50.2305ZM99.4401 44.1792H98.3654C98.3654 44.0339 98.3084 43.8944 98.2923 43.7833C98.2751 42.9777 97.9815 42.2025 97.4607 41.5877C96.9399 40.9729 96.2236 40.5558 95.4318 40.4063C93.9382 39.9779 92.3449 40.0547 90.8995 40.6247C90.3279 40.7883 89.8246 41.1325 89.4649 41.6058C89.1052 42.0791 88.9084 42.6562 88.9039 43.2507C88.8834 43.8344 89.0652 44.4073 89.4184 44.8725C89.7716 45.3376 90.2747 45.6665 90.8425 45.8036L95.7546 47.0643C96.2858 47.1917 96.8089 47.3509 97.3211 47.5409C98.8876 48.1106 99.9509 49.565 99.9983 51.2274C100.022 52.0411 99.7986 52.8428 99.3581 53.5274C98.9175 54.2119 98.2803 54.7472 97.5299 55.0629C96.3898 55.5808 95.1541 55.8548 93.902 55.8674C92.6499 55.8799 91.4089 55.6308 90.2586 55.136C89.3127 54.7281 88.5144 54.0401 87.9712 53.1648C87.428 52.2895 87.1661 51.2687 87.2206 50.24H88.2706C88.6656 52.1435 89.9729 53.729 91.7662 54.479C93.5596 55.229 95.6074 55.0448 97.2385 53.9891C97.7278 53.7346 98.134 53.3453 98.409 52.8671C98.6839 52.3889 98.816 51.8419 98.7898 51.291C98.8141 50.7483 98.6608 50.2125 98.3531 49.7648C98.0454 49.3171 97.6001 48.982 97.0847 48.8103C95.8239 48.3413 94.4834 48.0916 93.1989 47.671C91.8547 47.2963 90.5398 46.8238 89.2646 46.2574C87.2443 45.2634 87.0829 41.3614 89.3861 40.1168C90.6007 39.4114 91.9772 39.0324 93.3817 39.0168C94.7862 39.0011 96.1708 39.3493 97.4008 40.0275C98.1043 40.4474 98.6706 41.0628 99.0307 41.7987C99.3907 42.5346 99.529 43.3594 99.4287 44.1725L99.4401 44.1792ZM29.0625 55.4103C28.6394 55.5703 28.1725 55.5699 27.7497 55.4092C27.327 55.2484 26.9777 54.9385 26.7678 54.5379L22.5905 48.7609L21.9848 47.9539L17.1373 54.5464C16.9397 54.9298 16.6093 55.2282 16.2078 55.3858C15.8063 55.5433 15.3612 55.5494 14.9556 55.4028L21.2006 47.0245L15.3904 39.4541C16.2525 39.1427 17.2132 39.4807 17.6927 40.2611L22.0218 46.1093L26.3767 40.2839C26.5757 39.907 26.9063 39.6165 27.3056 39.4675C27.7049 39.3186 28.145 39.3216 28.5422 39.4759L26.2874 42.4674L23.2333 46.4425C23.1485 46.5182 23.0807 46.6109 23.0342 46.7147C22.9878 46.8184 22.9638 46.9308 22.9638 47.0444C22.9638 47.158 22.9878 47.2704 23.0342 47.3741C23.0807 47.4779 23.1485 47.5706 23.2333 47.6463L29.0501 55.4103H29.0625ZM55.5787 39.3734V40.5127C54.7615 40.4591 53.9422 40.5774 53.1736 40.86C52.405 41.1427 51.7042 41.5833 51.1165 42.1535C50.5287 42.7238 50.067 43.4109 49.7613 44.1706C49.4555 44.9303 49.3124 45.7456 49.3412 46.564V55.4512H48.1858V39.4446H49.3251V42.7247C50.7226 40.3323 52.8796 39.4446 55.5863 39.38L55.5787 39.3734ZM0.00189874 46.92L0.510767 44.407C1.90826 39.438 7.60454 37.3702 11.5236 40.4481C13.8182 42.25 14.3907 44.8029 14.2787 47.6795H1.35097C1.14211 52.8176 4.84944 55.9202 9.5916 54.3366C11.1543 53.767 12.3306 52.4682 12.7179 50.8543C12.9685 50.0473 13.3825 49.9087 14.1401 50.1422C14.0137 51.1259 13.666 52.0681 13.123 52.8981C12.58 53.728 11.856 54.424 11.0052 54.9338C9.59972 55.7024 7.98716 56.007 6.39813 55.8039C4.80909 55.6008 3.32496 54.9005 2.15794 53.803C1.0035 52.5052 0.30665 50.8647 0.170889 49.1321C0.170889 48.8473 0.0759505 48.5815 0.00949379 48.3251C0.0031646 47.846 0 47.3776 0 46.92H0.00189874ZM1.36711 46.5726H13.0578C12.9847 42.8481 10.634 40.206 7.49916 40.1813C4.00924 40.1339 1.51236 42.7181 1.35856 46.5564L1.36711 46.5726Z" fill="white"/>
</svg>
