<svg width="100" height="100" viewBox="0 0 100 100" fill="none" xmlns="http://www.w3.org/2000/svg">
<g id="mongodb">
<g id="mongodb_2">
<path id="Vector" d="M50.1455 0.272949L52.8141 5.28508C53.414 6.21001 54.064 7.0287 54.8295 7.79114C57.074 10.0076 59.1661 12.3732 61.0916 14.8719C65.6131 20.8089 68.6629 27.4022 70.8409 34.5329C72.1471 38.8888 72.8564 43.3572 72.9095 47.8756C73.1282 61.384 68.4973 72.9831 59.1605 82.6231C57.6417 84.1517 56.001 85.5542 54.2546 86.8165C53.3296 86.8165 52.8922 86.1072 52.511 85.4541C51.8167 84.2431 51.3547 82.9131 51.1486 81.5325C50.8205 79.8983 50.6048 78.264 50.7111 76.5766V75.8142C50.6361 75.6517 49.8205 0.657296 50.1455 0.272949Z" fill="#599636"/>
<path id="Vector_2" d="M50.1455 0.107501C50.0361 -0.111232 49.9268 0.0543804 49.8174 0.160623C49.8705 1.25429 49.4893 2.22922 48.8925 3.1604C48.2363 4.08533 47.3676 4.79466 46.4958 5.5571C41.6524 9.75054 37.8401 14.8158 34.7872 20.481C30.725 28.1054 28.6314 36.2767 28.0377 44.8792C27.7659 47.9821 29.0189 58.9313 29.997 62.0904C32.6655 70.4773 37.4589 77.5049 43.6679 83.6045C45.1927 85.0731 46.8239 86.4355 48.5113 87.7448C49.0018 87.7448 49.055 87.3073 49.1675 86.9823C49.3825 86.287 49.5465 85.5768 49.658 84.8575L50.7517 76.6893L50.1455 0.107501Z" fill="#6CAC48"/>
<path id="Vector_3" d="M52.814 90.1352C52.9234 88.8853 53.5234 87.8479 54.1765 86.8136C53.5203 86.5417 53.0328 86.0012 52.6516 85.3981C52.3228 84.8271 52.0507 84.2253 51.8391 83.6013C51.0767 81.314 50.9142 78.9142 50.6955 76.5769V75.1614C50.4236 75.3801 50.3673 77.23 50.3673 77.5049C50.2083 79.9753 49.8805 82.4319 49.3862 84.8575C49.2237 85.8387 49.1143 86.8167 48.5112 87.6885C48.5112 87.7979 48.5112 87.9072 48.5644 88.0697C49.5455 90.957 49.8143 93.8974 49.9799 96.894V97.9877C49.9799 99.2938 49.9268 99.0189 51.0111 99.4563C51.4485 99.6188 51.936 99.6751 52.3735 100C52.7016 100 52.7547 99.7282 52.7547 99.5095L52.5922 97.7127V92.7006C52.5391 91.8257 52.7016 90.957 52.8109 90.1383L52.814 90.1352Z" fill="#C2BFBF"/>
</g>
</g>
</svg>
