<svg width="100" height="100" viewBox="0 0 100 100" fill="none" xmlns="http://www.w3.org/2000/svg">
<g id="mysql">
<g id="mysql_2">
<path id="Vector" d="M92.1104 77.0663C86.6696 76.9286 82.4527 77.481 78.916 78.9996C77.8957 79.4135 76.2632 79.4139 76.1272 80.7257C76.6713 81.2781 76.7394 82.1757 77.2155 82.9348C78.0325 84.3153 79.4598 86.1796 80.7522 87.1466C82.1802 88.2509 83.609 89.3553 85.1047 90.3219C87.7575 91.979 90.7504 92.9453 93.3348 94.6024C94.8316 95.5682 96.3269 96.8118 97.8233 97.8471C98.5716 98.3987 99.0473 99.2971 100 99.6419V99.4352C99.5235 98.8134 99.3874 97.9162 98.9117 97.2257C98.2323 96.5353 97.5513 95.9138 96.8711 95.2234C94.8989 92.5314 92.4505 90.1838 89.7981 88.2509C87.6218 86.7319 82.8604 84.6609 81.9766 82.1063C81.9766 82.1063 81.9081 82.0376 81.8405 81.9686C83.3366 81.8305 85.1047 81.2781 86.5335 80.8638C88.8458 80.242 90.9541 80.3805 93.3348 79.7591C94.4227 79.4829 95.511 79.1377 96.599 78.7924V78.1714C95.3754 76.9286 94.4911 75.2719 93.1987 74.0981C89.7301 71.0597 85.921 68.0915 81.9766 65.6063C79.8679 64.2254 77.1471 63.3278 74.9028 62.1544C74.0874 61.7397 72.7266 61.533 72.2508 60.8425C71.026 59.3239 70.3458 57.322 69.462 55.5268C67.4902 51.7292 65.5852 47.5182 63.8847 43.5144C62.6611 40.8216 61.9129 38.1288 60.4164 35.6439C53.4111 23.9073 45.7936 16.7964 34.0957 9.82314C31.5789 8.37357 28.5864 7.75216 25.3898 6.99305C23.6901 6.9236 21.9892 6.78591 20.2891 6.71647C19.2008 6.23315 18.1124 4.92167 17.1602 4.30026C13.2842 1.81461 3.28555 -3.56978 0.429089 3.54115C-1.40746 8.02834 3.1499 12.4465 4.71359 14.7254C5.87072 16.3131 7.36639 18.1079 8.18263 19.903C8.65877 21.076 8.79443 22.3196 9.27057 23.5621C10.3593 26.5989 11.3788 29.9826 12.8076 32.8134C13.5559 34.263 14.3717 35.7816 15.324 37.0935C15.8682 37.8526 16.8201 38.1982 17.0245 39.4407C16.0726 40.8216 16.0042 42.8929 15.4596 44.6187C13.0113 52.4201 13.964 62.0853 17.4322 67.8153C18.5202 69.5407 21.1049 73.339 24.5736 71.8887C27.6345 70.6462 26.9543 66.711 27.8378 63.2591C28.0426 62.4298 27.9066 61.8782 28.3143 61.3258V61.4643C29.2666 63.3968 30.2185 65.2614 31.1028 67.1943C33.2114 70.5768 36.8837 74.0981 39.9442 76.4457C41.5771 77.6877 42.8691 79.8281 44.9097 80.5876V80.3801H44.7733C44.3652 79.7587 43.753 79.4829 43.2092 78.9992C41.9852 77.7572 40.6245 76.2382 39.6726 74.8572C36.8165 70.9907 34.2993 66.7106 32.0551 62.2921C30.9671 60.1524 30.0144 57.8049 29.1306 55.6649C28.7221 54.8355 28.7221 53.5935 28.0422 53.1796C27.0219 54.6982 25.5259 56.0101 24.7777 57.8739C23.486 60.8425 23.3496 64.5015 22.8735 68.2983C22.6014 68.3681 22.737 68.2983 22.601 68.4372C20.4251 67.884 19.6769 65.6063 18.8603 63.673C16.8197 58.7715 16.4796 50.9011 18.2485 45.2401C18.7246 43.7901 20.7652 39.2339 19.949 37.853C19.5409 36.5411 18.1801 35.7816 17.4322 34.7463C16.5484 33.4345 15.5957 31.7781 14.9839 30.3278C13.3514 26.4616 12.5352 22.1812 10.767 18.315C9.95077 16.5198 8.52312 14.6563 7.36639 12.9992C6.07439 11.1354 4.64596 9.82314 3.62566 7.61406C3.28595 6.85496 2.80941 5.61213 3.35357 4.78358C3.48962 4.23121 3.76131 4.02447 4.30586 3.88638C5.19013 3.12648 7.70688 4.09312 8.59036 4.5074C11.1071 5.54229 13.2154 6.50973 15.324 7.95929C16.2759 8.64975 17.2962 9.96163 18.5202 10.3069H19.9486C22.1252 10.7898 24.5732 10.4449 26.6138 11.066C30.2189 12.2393 33.4831 13.9655 36.408 15.8297C45.3179 21.5597 52.6625 29.7064 57.628 39.4407C58.4442 41.0279 58.7839 42.4787 59.5322 44.135C60.961 47.5182 62.7291 50.9701 64.1568 54.2839C65.5852 57.5283 66.9452 60.8425 68.9858 63.5353C70.0061 64.9845 74.0866 65.7444 75.9231 66.5039C77.2835 67.1249 79.3922 67.6777 80.6161 68.4368C82.9284 69.8859 85.2407 71.5438 87.4174 73.1311C88.5057 73.9596 91.906 75.6858 92.1104 77.0663Z" fill="#00546B"/>
<path id="Vector_2" d="M22.7368 17.0718C21.5808 17.0718 20.765 17.2107 19.9487 17.4174V17.5555H20.0848C20.6293 18.6602 21.5808 19.4197 22.2606 20.386C22.8052 21.4903 23.2809 22.5954 23.8255 23.7002C23.8931 23.6307 23.9611 23.5621 23.9611 23.5621C24.9138 22.8712 25.3896 21.7669 25.3896 20.1098C24.9814 19.6269 24.9134 19.1436 24.5733 18.6602C24.1656 17.9694 23.2809 17.6245 22.7368 17.0718Z" fill="#00546B"/>
</g>
</g>
</svg>
