<svg width="100" height="100" viewBox="0 0 100 100" fill="none" xmlns="http://www.w3.org/2000/svg">
<g clip-path="url(#clip0_807_83)">
<path d="M100 0H0V100H100V0Z" fill="#512BD4"/>
<path d="M17.8233 63.89C17.1162 63.89 16.5152 63.6544 16.0203 63.183C15.5253 62.6995 15.2778 62.1255 15.2778 61.4609C15.2778 60.784 15.5253 60.204 16.0203 59.7205C16.5152 59.2371 17.1162 58.9954 17.8233 58.9954C18.5422 58.9954 19.1491 59.2371 19.644 59.7205C20.1508 60.204 20.4041 60.784 20.4041 61.4609C20.4041 62.1255 20.1508 62.6995 19.644 63.183C19.1491 63.6544 18.5422 63.89 17.8233 63.89Z" fill="white"/>
<path d="M46.0892 63.4915H41.4931L29.3846 44.3876C29.0782 43.9043 28.8247 43.4027 28.6245 42.8832H28.5183C28.6126 43.4391 28.6598 44.6293 28.6598 46.4538V63.4915H24.594V37.5H29.4905L41.1927 56.1508C41.6876 56.9243 42.0058 57.4559 42.1473 57.7458H42.2179C42.1001 57.0572 42.0411 55.8911 42.0411 54.2476V37.5H46.0892V63.4915Z" fill="white"/>
<path d="M65.888 63.4915H51.6582V37.5H65.3225V41.1614H55.8654V48.5201H64.5801V52.1633H55.8654V59.8483H65.888V63.4915Z" fill="white"/>
<path d="M86.1112 41.1614H78.8283V63.4915H74.6211V41.1614H67.356V37.5H86.1112V41.1614Z" fill="white"/>
</g>
<defs>
<clipPath id="clip0_807_83">
<rect width="100" height="100" fill="white"/>
</clipPath>
</defs>
</svg>
