<svg width="100" height="100" viewBox="0 0 100 100" fill="none" xmlns="http://www.w3.org/2000/svg">
<g id="nodejs">
<g id="nodejs_2">
<path id="Vector" d="M46.2785 1.06686C48.758 -0.352413 51.9876 -0.358823 54.465 1.06686C66.9286 8.10944 79.3961 15.141 91.8576 22.1878C94.2014 23.5081 95.7692 26.1166 95.7454 28.8173V71.1881C95.7628 74.0007 94.0401 76.6715 91.5673 77.9618C79.1447 84.9656 66.7285 91.9779 54.308 98.9816C51.7772 100.429 48.4827 100.317 46.031 98.7516C42.3067 96.5926 38.576 94.4443 34.8513 92.2874C34.0902 91.8336 33.2322 91.4725 32.6948 90.7346C33.1699 90.0942 34.0193 90.0144 34.7096 89.7348C36.2642 89.2405 37.692 88.447 39.1202 87.677C39.4813 87.4298 39.9222 87.5246 40.2684 87.7457C43.4531 89.5717 46.6097 91.4508 49.8051 93.2593C50.4868 93.6529 51.177 93.1304 51.7597 92.8056C63.9501 85.9158 76.1555 79.052 88.3438 72.1601C88.7954 71.9428 89.0451 71.4634 89.0084 70.9688C89.0169 56.9915 89.0105 43.0118 89.0126 29.0345C89.0643 28.4732 88.7395 27.9572 88.232 27.7274C75.8524 20.7557 63.4793 13.7733 51.1019 6.79986C50.8874 6.65243 50.6334 6.57333 50.3732 6.57295C50.1129 6.57257 49.8587 6.65093 49.6438 6.79773C37.2664 13.7733 24.8954 20.7621 12.518 27.7335C12.0123 27.9636 11.6728 28.4711 11.733 29.0345C11.7352 43.0118 11.733 56.9915 11.733 70.9709C11.7116 71.2123 11.7646 71.4544 11.8849 71.6647C12.0053 71.8751 12.1872 72.0435 12.4062 72.1473C15.7091 74.0203 19.0164 75.8801 22.3215 77.7467C24.1834 78.7489 26.4696 79.3444 28.521 78.5765C30.3314 77.9273 31.6003 76.0799 31.5658 74.1577C31.5829 60.2621 31.5573 46.3642 31.5786 32.4707C31.5334 31.8538 32.1185 31.3442 32.7183 31.4022C34.3053 31.3916 35.8945 31.3809 37.4815 31.4065C38.144 31.3916 38.5998 32.0558 38.5179 32.6773C38.5115 46.6609 38.535 60.6449 38.5072 74.6286C38.5115 78.3554 36.9804 82.4105 33.5332 84.234C29.2864 86.434 24.0374 85.9674 19.8419 83.8579C16.2099 82.0451 12.7438 79.9057 9.17621 77.9636C6.69702 76.6804 4.98286 73.9989 5.00031 71.1885V28.8173C4.97431 26.0606 6.60442 23.4048 9.02128 22.1038C21.4418 15.0943 33.8601 8.07952 46.2785 1.06686Z" fill="#8CC84B"/>
<path id="Vector_2" d="M57.1141 30.4174C62.5312 30.0687 68.3304 30.2108 73.2051 32.8795C76.9793 34.9245 79.0717 39.2165 79.1383 43.4095C79.0329 43.9751 78.4416 44.2871 77.9017 44.2483C76.33 44.2461 74.7579 44.2696 73.1862 44.2376C72.5195 44.2632 72.132 43.6485 72.0483 43.0591C71.5967 41.0529 70.5026 39.0659 68.6143 38.0982C65.7156 36.6469 62.3545 36.7199 59.1937 36.7502C56.8862 36.8727 54.4048 37.0725 52.4499 38.4294C50.9491 39.4573 50.4932 41.5322 51.0289 43.2033C51.5339 44.4032 52.919 44.7903 54.0522 45.1472C60.5805 46.8546 67.4985 46.6847 73.9021 48.9317C76.5533 49.8477 79.1468 51.6285 80.0543 54.4043C81.2414 58.1247 80.721 62.5717 78.0741 65.5584C75.9276 68.0162 72.8012 69.3539 69.6831 70.0804C65.535 71.0054 61.2302 71.0289 57.0176 70.6182C53.0564 70.1666 48.9343 69.1259 45.8764 66.427C43.2615 64.1565 41.9843 60.6189 42.1111 57.2044C42.1414 56.6278 42.7155 56.2257 43.2679 56.2731C44.8507 56.2603 46.4334 56.256 48.0162 56.2752C48.6483 56.23 49.117 56.7763 49.1494 57.3722C49.4415 59.2837 50.1598 61.2899 51.8266 62.4231C55.0434 64.4984 59.0797 64.3563 62.7631 64.4144C65.8146 64.2791 69.2401 64.2381 71.7303 62.2212C73.0441 61.0708 73.4334 59.1462 73.0783 57.4904C72.6937 56.0925 71.2313 55.4411 69.9755 55.0151C63.5309 52.9765 56.5357 53.7163 50.1534 51.4109C47.5624 50.4952 45.0569 48.7639 44.0614 46.1021C42.6724 42.3347 43.3089 37.6747 46.2333 34.7888C49.0846 31.9182 53.2007 30.8127 57.1141 30.4171V30.4174Z" fill="#8CC84B"/>
</g>
</g>
</svg>
