<svg width="100" height="100" viewBox="0 0 100 100" fill="none" xmlns="http://www.w3.org/2000/svg">
<g id="postgresql">
<g id="postgresql_2">
<path id="Vector" d="M98.4716 59.9022C97.8902 58.1365 96.3673 56.9067 94.3978 56.6116C93.4691 56.4726 92.4055 56.5319 91.1469 56.792C88.9532 57.2459 87.3257 57.4187 86.138 57.4521C90.6212 49.8619 94.2667 41.2063 96.3654 33.0585C99.759 19.8837 97.9455 13.8818 95.8264 11.167C90.2183 3.98123 82.0361 0.120977 72.1652 0.00285975C66.8994 -0.0617057 62.2768 0.980837 59.8653 1.73056C57.62 1.33329 55.2059 1.11149 52.6728 1.07047C47.9244 0.99451 43.729 2.0325 40.1442 4.16582C38.1595 3.49281 34.9742 2.54408 31.2958 1.93869C22.6444 0.514446 15.6716 1.62421 10.5714 5.23722C4.3955 9.61172 1.53253 17.2122 2.06202 27.8276C2.23018 31.1979 4.1103 41.4524 7.0706 51.1775C8.77195 56.7673 10.5862 61.4092 12.4629 64.9755C15.1243 70.0325 17.9722 73.0105 21.1692 74.08C22.961 74.6786 26.2168 75.0978 29.6411 72.238C30.0751 72.7651 30.6542 73.2889 31.4227 73.7754C32.3987 74.3926 33.5922 74.8969 34.7841 75.1958C39.0795 76.2726 43.1029 76.0033 46.5356 74.494C46.5568 75.1062 46.573 75.6911 46.5867 76.1962C46.6094 77.0154 46.6321 77.8187 46.6621 78.57C46.8654 83.6494 47.2101 87.5989 48.2312 90.3623C48.2873 90.5142 48.3626 90.7459 48.4422 90.9916C48.9516 92.5556 49.8034 95.1739 51.9706 97.2244C54.2147 99.3487 56.9292 100 59.4153 100C60.6622 100 61.8518 99.8359 62.8953 99.6118C66.6146 98.8124 70.8388 97.5947 73.8945 93.2316C76.7836 89.107 78.188 82.8947 78.4422 73.1062C78.4751 72.8293 78.5054 72.565 78.5346 72.3132L78.5952 71.7959L79.2758 71.8559L79.4512 71.8677C83.2394 72.0409 87.8715 71.2353 90.7163 69.9102C92.9642 68.8642 100.168 65.0507 98.4716 59.9022Z" fill="black"/>
<path id="Vector_2" d="M91.9943 60.9033C80.7303 63.2333 79.9558 59.4092 79.9558 59.4092C91.8485 41.7133 96.8204 19.2509 92.5303 13.7533C80.8254 -1.24298 60.5641 5.84936 60.2259 6.03318L60.1172 6.05293C57.8917 5.58958 55.4014 5.31385 52.6021 5.26789C47.5056 5.18434 43.6393 6.60782 40.7055 8.83875C40.7055 8.83875 4.56141 -6.09261 6.24268 27.6175C6.60022 34.7888 16.4932 81.8803 28.2927 67.6565C32.6056 62.4551 36.773 58.0575 36.773 58.0575C38.8424 59.4361 41.3202 60.1395 43.9177 59.887L44.1196 59.7153C44.0567 60.3609 44.0855 60.9925 44.2002 61.7404C41.1604 65.146 42.0539 65.7438 35.9772 66.9983C29.8282 68.2691 33.4403 70.5312 35.7988 71.1229C38.658 71.8396 45.2725 72.8551 49.7417 66.5813L49.5637 67.2972C50.7545 68.2539 51.5908 73.5194 51.4507 78.2931C51.3105 83.0664 51.217 86.3436 52.1551 88.9035C53.0941 91.4633 54.0292 97.2229 62.0178 95.5066C68.6925 94.0721 72.1516 90.3551 72.633 84.1545C72.9743 79.7466 73.7473 80.3983 73.7958 76.4571L74.4158 74.5916C75.1305 68.6162 74.5294 66.6884 78.6415 67.5851L79.6414 67.6732C82.6676 67.811 86.6293 67.1848 88.9545 66.1012C93.9608 63.7715 96.9302 59.8813 91.9936 60.9033H91.9943Z" fill="#336791"/>
<path id="Vector_3" d="M42.8212 30.8245C41.8062 30.6828 40.8869 30.8138 40.4218 31.167C40.1605 31.3657 40.0794 31.5958 40.0575 31.7542C39.9991 32.1739 40.2923 32.638 40.4726 32.8772C40.9824 33.5548 41.727 34.0204 42.4641 34.123C42.5709 34.1382 42.6773 34.145 42.783 34.145C44.012 34.145 45.1297 33.1853 45.2282 32.4769C45.3513 31.5897 44.0669 30.9984 42.8212 30.8248V30.8245ZM76.4482 30.8526C76.3512 30.1572 75.1172 29.9589 73.9461 30.1222C72.7766 30.2855 71.6426 30.815 71.7373 31.5119C71.813 32.0538 72.789 32.979 73.9442 32.979C74.042 32.979 74.1404 32.9726 74.2397 32.9585C75.0108 32.8514 75.5766 32.3603 75.8456 32.0774C76.2546 31.6459 76.4917 31.1651 76.4482 30.8526Z" fill="white"/>
<path id="Vector_4" d="M95.7425 60.6388C95.313 59.3365 93.9306 58.9176 91.6339 59.3931C84.8145 60.8044 82.3723 59.8268 81.5705 59.2347C86.8711 51.1374 91.2316 41.3493 93.584 32.217C94.6983 27.8911 95.3138 23.8736 95.3642 20.599C95.4198 17.005 94.8093 14.3639 93.5503 12.7505C88.4743 6.24643 81.0243 2.75761 72.0063 2.6619C65.8065 2.59202 60.5684 4.18299 59.5529 4.63039C57.4145 4.09716 55.0833 3.76977 52.5453 3.72799C47.8912 3.65241 43.8681 4.76978 40.5374 7.04743C39.0906 6.50735 35.3515 5.22022 30.7789 4.48151C22.8736 3.20539 16.5917 4.17236 12.1088 7.35696C6.75968 11.1572 4.29022 17.9503 4.76858 27.547C4.92955 30.7757 6.76422 40.7082 9.65939 50.2202C13.4704 62.7399 17.6131 69.8273 21.9718 71.2853C22.482 71.4558 23.0702 71.5751 23.719 71.5751C25.309 71.5751 27.2584 70.8565 29.2866 68.4114C31.7604 65.4355 34.3195 62.5319 36.9605 59.7041C38.6739 60.6263 40.5563 61.1413 42.4815 61.1929C42.4853 61.2434 42.4902 61.294 42.4948 61.3441C42.1634 61.7404 41.8389 62.1424 41.5214 62.55C40.1874 64.248 39.9098 64.6016 35.6159 65.4881C34.3944 65.741 31.1504 66.4114 31.1027 68.6917C31.0512 71.1831 34.9376 72.2295 35.3803 72.3404C36.9234 72.7278 38.41 72.9188 39.8276 72.9188C43.2754 72.9188 46.3096 71.7825 48.7343 69.5838C48.6597 78.4658 49.029 87.2178 50.0925 89.8844C50.9636 92.0675 53.0915 97.4025 59.8128 97.4021C60.799 97.4021 61.8845 97.287 63.0787 97.0303C70.0936 95.5225 73.1399 92.4135 74.3181 85.5592C74.9488 81.8961 76.0309 73.149 76.5399 68.4569C77.614 68.7931 78.9968 68.9469 80.4918 68.9465C83.6097 68.9465 87.2074 68.2822 89.4636 67.2321C91.9982 66.0517 96.572 63.1553 95.7425 60.6388ZM79.0374 28.9333C79.0143 30.3184 78.8241 31.5759 78.6227 32.8885C78.4056 34.3002 78.1814 35.7598 78.125 37.5315C78.0693 39.2558 78.284 41.0485 78.4916 42.7822C78.9113 46.284 79.3419 49.889 77.675 53.4462C77.3981 52.9542 77.1515 52.4457 76.9365 51.9236C76.7293 51.42 76.2793 50.611 75.6563 49.4914C73.2327 45.1328 67.5571 34.9261 70.4625 30.7612C71.3279 29.5216 73.5243 28.247 79.0374 28.9333ZM72.3547 5.46671C80.435 5.64559 86.8268 8.67676 91.3521 14.4755C94.8229 18.9233 91.001 39.1616 79.9365 56.6213C79.8253 56.4794 79.7134 56.338 79.601 56.1971L79.4608 56.0216C82.32 51.2867 81.761 46.6019 81.2633 42.4484C81.0588 40.7439 80.8656 39.1339 80.9148 37.6215C80.9656 36.0188 81.1769 34.6439 81.3815 33.3146C81.6326 31.6766 81.8882 29.9815 81.8178 27.9834C81.8704 27.7738 81.8916 27.5261 81.864 27.2322C81.6841 25.3161 79.5025 19.5815 75.056 14.3912C72.6236 11.5522 69.0766 8.3752 64.2335 6.23238C66.3167 5.79941 69.1653 5.39569 72.3547 5.46671ZM27.1402 66.6218C24.9056 69.316 23.3626 68.7995 22.8551 68.6301C19.5486 67.5242 15.7118 60.5161 12.3292 49.4032C9.40222 39.7875 7.69178 30.1182 7.55619 27.4069C7.12896 18.8318 9.20186 12.8557 13.7177 9.6441C21.067 4.41809 33.1499 7.5461 38.0051 9.13252C37.9354 9.20164 37.8627 9.26621 37.7937 9.33647C29.8263 17.4049 30.0153 31.19 30.035 32.0328C30.0343 32.3579 30.0615 32.8182 30.0987 33.4514C30.2358 35.77 30.491 40.0853 29.8093 44.9721C29.176 49.5134 30.5721 53.9582 33.6388 57.1671C33.9536 57.4958 34.2844 57.8086 34.63 58.1044C33.265 59.5704 30.2983 62.8124 27.1402 66.6218ZM35.6542 55.2305C33.1824 52.6441 32.0598 49.0466 32.5738 45.3595C33.2934 40.1973 33.0279 35.7013 32.8851 33.2858C32.8651 32.9477 32.8472 32.6515 32.837 32.4179C34.0009 31.383 39.3947 28.4851 43.2413 29.3689C44.9964 29.7719 46.066 30.9705 46.5107 33.0321C48.812 43.7055 46.8152 48.1541 45.2108 51.7291C44.8801 52.4656 44.5677 53.1617 44.301 53.8818L44.0942 54.4386C43.5708 55.8461 43.0837 57.1549 42.7819 58.3976C40.1541 58.39 37.5979 57.2643 35.6542 55.2301V55.2305ZM36.0575 69.6248C35.2902 69.4326 34.6001 69.0988 34.1952 68.8219C34.5334 68.6624 35.1353 68.4452 36.1791 68.2294C41.2305 67.1869 42.0107 66.4509 43.7144 64.2818C44.1048 63.7843 44.5476 63.2207 45.1608 62.534L45.1616 62.5332C46.0747 61.5078 46.4925 61.6817 47.25 61.997C47.8639 62.2514 48.462 63.0232 48.7044 63.8724C48.8192 64.2735 48.9479 65.0346 48.5264 65.6271C44.9676 70.6237 39.7818 70.5595 36.0575 69.6248ZM62.4939 94.2935C56.3142 95.6212 54.1262 92.4594 52.6843 88.8449C51.7537 86.5114 51.2962 75.9887 51.6208 64.368C51.6249 64.2135 51.603 64.0642 51.5605 63.9237C51.5226 63.6462 51.4649 63.3718 51.3878 63.1026C50.9053 61.4117 49.7293 59.9973 48.3184 59.4109C47.7579 59.1781 46.7292 58.7508 45.493 59.068C45.7566 57.9787 46.2137 56.7485 46.7095 55.4166L46.9174 54.8564C47.1515 54.2248 47.4454 53.5704 47.756 52.8776C49.435 49.1374 51.7344 44.0143 49.2388 32.4407C48.3041 28.1057 45.1824 25.9887 40.4503 26.4805C37.6134 26.7749 35.0179 27.9226 33.7233 28.5808C33.4449 28.7221 33.1904 28.8588 32.9525 28.9918C33.3139 24.6241 34.6789 16.4615 39.7852 11.297C43.0004 8.04591 47.2822 6.44013 52.4991 6.52672C62.7784 6.69535 69.3702 11.9852 73.0902 16.3935C76.296 20.1919 78.0318 24.0183 78.7245 26.0821C73.5148 25.5508 69.9716 26.582 68.1756 29.157C64.268 34.7582 70.3132 45.6296 73.2186 50.8545C73.7515 51.8119 74.2113 52.6395 74.356 52.9912C75.3021 55.2905 76.527 56.8256 77.4212 57.946C77.6955 58.2894 77.9613 58.6225 78.1636 58.9134C76.5857 59.3695 73.7515 60.4235 74.0098 65.6916C73.8015 68.335 72.3202 80.7111 71.5677 85.0837C70.5742 90.8605 68.4543 93.012 62.4939 94.2938V94.2935ZM88.2884 64.6935C86.6749 65.4444 83.9748 66.0076 81.4099 66.1288C78.5768 66.2617 77.1345 65.8105 76.7952 65.5329C76.6361 62.2499 77.8545 61.907 79.1442 61.5439C79.3468 61.4869 79.5445 61.4311 79.7354 61.3642C79.854 61.4611 79.9839 61.5572 80.1263 61.6513C82.4033 63.1584 86.4647 63.3209 92.1986 62.1341L92.2615 62.1215C91.488 62.8466 90.1647 63.8196 88.2884 64.6935Z" fill="white"/>
</g>
</g>
</svg>
