<svg width="100" height="100" viewBox="0 0 100 100" fill="none" xmlns="http://www.w3.org/2000/svg">
<g id="postman">
<g id="postman_2">
<path id="Vector" d="M89.5728 19.4394C83.5282 11.6121 75.2981 5.75313 65.9235 2.6035C56.5488 -0.546142 46.4507 -0.844958 36.9062 1.74484C27.3617 4.33463 18.7996 9.69671 12.3027 17.1529C5.80588 24.6091 1.66609 33.8245 0.406949 43.6336C-0.852194 53.4428 0.825867 63.405 5.2289 72.2603C9.63194 81.1157 16.5622 88.4665 25.1431 93.3829C33.7241 98.2994 43.5703 100.561 53.4365 99.8809C63.3027 99.2011 72.7457 95.6107 80.5713 89.5639C102.415 72.6827 106.446 41.2908 89.5712 19.4394H89.5728Z" fill="#FF6C37"/>
<path id="Vector_2" d="M66.8634 31.8582L45.7808 53.108L39.8231 46.9831C60.5728 26.2332 62.6556 28.1082 66.8649 31.8582H66.8634Z" fill="white"/>
<path id="Vector_3" d="M45.781 53.689C45.5942 53.6844 45.4159 53.6103 45.281 53.4812L39.281 47.4812C39.1459 47.3414 39.0704 47.1546 39.0704 46.9601C39.0704 46.7657 39.1459 46.5789 39.281 46.4391C59.7387 25.9814 62.5308 26.9392 67.3636 31.3142C67.4445 31.3789 67.5092 31.4617 67.5526 31.5558C67.596 31.6499 67.6169 31.7528 67.6136 31.8564C67.6448 32.0595 67.5667 32.2673 67.4058 32.3986L46.3232 53.4827C46.1753 53.6183 45.9815 53.6926 45.781 53.6906V53.689ZM40.8638 46.9812L45.781 51.8984L65.7808 31.8986C65.0903 31.0332 64.1049 30.4527 63.0133 30.2682C61.9216 30.0837 60.8002 30.3082 59.8637 30.8986C56.2387 32.5236 50.4059 37.4813 40.8638 46.9812Z" fill="#FF6C37"/>
<path id="Vector_4" d="M51.823 58.9829L46.073 53.108L67.1557 32.2739C72.8229 37.816 64.4057 47.0659 51.823 58.9814V58.9829Z" fill="white"/>
<path id="Vector_5" d="M51.8231 59.7327C51.6387 59.718 51.4636 59.6453 51.3231 59.5249L45.4482 53.7749C45.3601 53.5613 45.3601 53.3214 45.4482 53.1078C45.3857 52.9324 45.3857 52.7409 45.4482 52.5656L66.5308 31.483C66.6774 31.3452 66.871 31.2686 67.0722 31.2686C67.2734 31.2686 67.467 31.3452 67.6136 31.483C68.2964 32.1114 68.8358 32.8795 69.1952 33.735C69.5546 34.5905 69.7255 35.5133 69.6964 36.4408C69.6964 42.0657 63.2793 49.1484 52.3637 59.4827C52.2179 59.627 52.026 59.7155 51.8216 59.7327H51.8231ZM47.156 53.1078L51.8637 57.814C60.1965 49.939 68.1558 41.8141 68.1964 36.3142C68.2417 35.1482 67.8563 34.0064 67.1136 33.1064L47.156 53.1078Z" fill="#FF6C37"/>
<path id="Vector_6" d="M39.9888 47.108L44.1559 51.2751C44.1825 51.2986 44.2038 51.3274 44.2184 51.3597C44.233 51.3921 44.2406 51.4271 44.2406 51.4626C44.2406 51.4981 44.233 51.5331 44.2184 51.5655C44.2038 51.5978 44.1825 51.6266 44.1559 51.6501L35.3638 53.5251C35.1864 53.5634 35.0012 53.5426 34.8366 53.466C34.672 53.3894 34.537 53.261 34.4521 53.1006C34.3671 52.9401 34.337 52.7562 34.3662 52.5771C34.3954 52.3979 34.4824 52.2331 34.6139 52.1079L39.7388 47.0251C39.7388 47.0251 39.906 47.0251 39.9888 47.108Z" fill="white"/>
<path id="Vector_7" d="M35.156 54.358C34.8782 54.3546 34.6059 54.2799 34.3652 54.1412C34.1245 54.0025 33.9234 53.8044 33.781 53.5659C33.6208 53.2637 33.5627 52.9177 33.6153 52.5798C33.668 52.2418 33.8286 51.93 34.0732 51.6909L39.1559 46.5659C39.3392 46.4021 39.5765 46.3115 39.8223 46.3115C40.0682 46.3115 40.3054 46.4021 40.4887 46.5659L44.6559 50.7331C44.9027 50.9675 44.9996 51.3221 44.9059 51.6503C44.8121 51.9784 44.5371 52.2393 44.1981 52.3174L35.406 54.1924L35.156 54.358ZM39.8231 48.0253L35.1154 52.7331L42.9074 51.0659L39.8231 48.0253Z" fill="#FF6C37"/>
<path id="Vector_8" d="M78.073 20.149C75.0573 17.2397 70.3198 17.1178 67.1573 19.8631C63.9948 22.6084 63.4541 27.3208 65.9166 30.7114C68.3792 34.102 73.0214 35.052 76.6152 32.8989L70.9479 27.2318L78.073 20.149Z" fill="white"/>
<path id="Vector_9" d="M72.448 34.8142C70.7154 34.792 69.0277 34.2605 67.5951 33.2858C66.1626 32.3111 65.0485 30.9364 64.3917 29.333C63.7354 27.7308 63.5633 25.9714 63.8965 24.2724C64.2298 22.5733 65.0538 21.0093 66.2667 19.7737C67.9349 18.1362 70.1791 17.2187 72.5167 17.2188C74.8543 17.2188 77.0986 18.1362 78.7667 19.7737C78.9261 19.9081 79.0167 20.1065 79.0167 20.3159C79.0163 20.4189 78.9938 20.5206 78.9507 20.6142C78.9076 20.7077 78.8448 20.7909 78.7667 20.8581L72.0167 27.233L77.1417 32.2752C77.2248 32.3545 77.2871 32.4529 77.3233 32.5619C77.3596 32.6708 77.3686 32.787 77.3495 32.9002C77.3372 33.0094 77.301 33.1146 77.2435 33.2083C77.186 33.302 77.1086 33.3819 77.0167 33.4424C75.6399 34.303 74.0571 34.7778 72.4339 34.8174L72.448 34.8142ZM72.448 18.6472C69.4792 18.6628 66.823 20.4487 65.7089 23.1784C64.5949 25.908 65.2011 29.0502 67.2824 31.1471C68.3176 32.1883 69.6431 32.8926 71.0853 33.1678C72.5276 33.443 74.0193 33.2762 75.3652 32.6892L70.448 27.7721C70.3698 27.7096 70.3067 27.6303 70.2633 27.5401C70.22 27.4499 70.1975 27.3511 70.1975 27.251C70.1975 27.1509 70.22 27.0521 70.2633 26.9619C70.3067 26.8717 70.3698 26.7924 70.448 26.7299L76.948 20.1878C75.6559 19.1975 74.0759 18.656 72.448 18.6456V18.6472Z" fill="#FF6C37"/>
<path id="Vector_10" d="M78.1977 20.2739L71.0729 27.3567L76.7399 33.0238C77.3103 32.6963 77.8414 32.3047 78.3227 31.8566C79.808 30.2867 80.6252 28.2011 80.6019 26.04C80.5786 23.8789 79.7165 21.8114 78.1977 20.2739Z" fill="white"/>
<path id="Vector_11" d="M76.6135 33.6488C76.5199 33.6539 76.4263 33.6378 76.3398 33.6019C76.2532 33.5659 76.1759 33.5109 76.1135 33.441L70.4463 27.7738C70.3682 27.7113 70.3051 27.6321 70.2617 27.5418C70.2183 27.4516 70.1958 27.3528 70.1958 27.2528C70.1958 27.1527 70.2183 27.0539 70.2617 26.9637C70.3051 26.8735 70.3682 26.7942 70.4463 26.7317L77.5291 19.7739C77.5975 19.6708 77.6904 19.5862 77.7994 19.5276C77.9085 19.4691 78.0303 19.4385 78.1541 19.4385C78.2778 19.4385 78.3997 19.4691 78.5087 19.5276C78.6178 19.5862 78.7107 19.6708 78.7791 19.7739C79.6106 20.5886 80.2711 21.561 80.7221 22.6342C81.173 23.7074 81.4053 24.8598 81.4053 26.0239C81.4053 27.1879 81.173 28.3403 80.7221 29.4135C80.2711 30.4867 79.6106 31.4591 78.7791 32.2738C78.2886 32.7941 77.7274 33.2427 77.1119 33.6066C76.9569 33.6847 76.7778 33.6998 76.6119 33.6488H76.6135ZM72.0307 27.2332L76.7385 31.941C77.0623 31.714 77.3689 31.4633 77.6556 31.191C79.0396 29.8108 79.8191 27.9377 79.8228 25.9832C79.826 24.2341 79.1885 22.5444 78.0306 21.2333L72.0307 27.2332Z" fill="#FF6C37"/>
<path id="Vector_12" d="M67.7386 32.7332C67.1742 32.2032 66.4292 31.9082 65.655 31.9082C64.8808 31.9082 64.1358 32.2032 63.5714 32.7332L44.6981 51.5643L47.8231 54.7315L67.7808 37.2316C68.0851 36.9399 68.3265 36.589 68.4902 36.2004C68.6538 35.8119 68.7362 35.394 68.7322 34.9725C68.7283 34.5509 68.6381 34.1346 68.4672 33.7492C68.2963 33.3639 68.0483 33.0175 67.7386 32.7316V32.7332Z" fill="white"/>
<path id="Vector_13" d="M47.6559 55.4829C47.4692 55.4783 47.2909 55.4042 47.1559 55.2751L43.9888 52.108C43.8537 51.9681 43.7782 51.7813 43.7782 51.5869C43.7782 51.3925 43.8537 51.2056 43.9888 51.0658L62.8636 32.2738C63.4073 31.7308 64.1015 31.3636 64.8564 31.22C65.6112 31.0763 66.3918 31.1627 67.0969 31.468C67.802 31.7734 68.3991 32.2835 68.8108 32.9323C69.2225 33.5811 69.4298 34.3386 69.4057 35.1066C69.3841 35.6278 69.2587 36.1396 69.0368 36.6118C68.8149 37.084 68.501 37.5072 68.1136 37.8565L48.1559 55.3564C48.0108 55.4591 47.8324 55.5037 47.6559 55.4814V55.4829ZM45.4482 51.5642L47.5309 53.6892L67.1136 36.6472C67.598 36.2253 67.887 35.6222 67.9058 34.98C67.9245 34.3378 67.6714 33.7097 67.198 33.2722C66.7608 32.8368 66.1689 32.5924 65.5519 32.5924C64.9349 32.5924 64.343 32.8368 63.9058 33.2722L45.4482 51.5642Z" fill="#FF6C37"/>
<path id="Vector_14" d="M30.0733 73.0235C30.02 73.0959 29.9913 73.1835 29.9913 73.2734C29.9913 73.3634 30.02 73.451 30.0733 73.5234L30.9061 77.1484C30.9395 77.3617 30.9079 77.5802 30.8153 77.7752C30.7228 77.9703 30.5737 78.133 30.3874 78.2422C30.2017 78.3507 29.9864 78.3976 29.7725 78.376C29.5585 78.3544 29.3569 78.2654 29.1968 78.1219L23.489 72.6219L41.281 54.6892H47.4481L51.6152 58.8564C45.1149 64.5398 37.8669 69.3064 30.0733 73.0235Z" fill="white"/>
<path id="Vector_15" d="M29.6983 79.1484C29.2264 79.1391 28.7608 78.9453 28.4483 78.6062L22.9905 73.1485C22.9124 73.086 22.8492 73.0067 22.8059 72.9165C22.7625 72.8263 22.74 72.7275 22.74 72.6274C22.74 72.5273 22.7625 72.4285 22.8059 72.3383C22.8492 72.2481 22.9124 72.1688 22.9905 72.1063L40.906 54.1487C41.0063 54.042 41.1374 53.9694 41.281 53.9408H47.4887C47.6505 53.8837 47.827 53.8837 47.9887 53.9408L52.1559 58.108C52.2351 58.1811 52.2954 58.2723 52.3316 58.3738C52.3678 58.4753 52.3788 58.5841 52.3637 58.6908C52.3666 58.7943 52.3456 58.8971 52.3022 58.9912C52.2589 59.0852 52.1943 59.168 52.1137 59.233L51.7809 59.5252C45.2543 64.9662 38.0738 69.5711 30.4061 73.2329L31.1983 76.6078C31.2595 76.8682 31.2618 77.1389 31.2051 77.4003C31.1484 77.6617 31.034 77.9071 30.8704 78.1186C30.7068 78.3302 30.498 78.5025 30.2592 78.6231C30.0205 78.7437 29.7579 78.8095 29.4905 78.8156L29.6983 79.1484ZM24.6155 72.6063L29.5311 77.5641C29.5769 77.6049 29.6361 77.6275 29.6975 77.6275C29.7589 77.6275 29.8181 77.6049 29.8639 77.5641C29.8945 77.5215 29.911 77.4704 29.911 77.418C29.911 77.3655 29.8945 77.3144 29.8639 77.2719L29.0311 73.6469C28.9655 73.3868 28.9918 73.1119 29.1058 72.869C29.2197 72.6261 29.4141 72.43 29.6561 72.3141C37.1176 68.7012 44.113 64.1959 50.4887 58.897L47.0716 55.4799H41.4888L24.6155 72.6063Z" fill="#FF6C37"/>
<path id="Vector_16" d="M19.1984 76.8983L23.3655 72.7312L29.7827 79.1483L19.5749 78.4405C19.3997 78.4268 19.2332 78.358 19.0994 78.2441C18.9655 78.1301 18.871 77.9768 18.8295 77.806C18.7879 77.6352 18.8013 77.4556 18.8678 77.2929C18.9344 77.1302 19.0506 76.9926 19.2 76.8999L19.1984 76.8983Z" fill="white"/>
<path id="Vector_17" d="M29.906 79.7733L19.739 79.0654C19.1359 79.0092 18.6171 78.5967 18.4046 78.0451C18.1921 77.4936 18.3218 76.8389 18.739 76.3983L22.9061 72.2311C23.046 72.096 23.2328 72.0205 23.4272 72.0205C23.6216 72.0205 23.8085 72.096 23.9483 72.2311L30.3232 78.6061C30.4115 78.727 30.459 78.8728 30.459 79.0225C30.459 79.1722 30.4115 79.318 30.3232 79.4389C30.2268 79.5947 30.0794 79.7123 29.906 79.7717V79.7733ZM19.739 77.4405L28.0717 77.9826L23.4889 73.6905L19.739 77.4405Z" fill="#FF6C37"/>
<path id="Vector_18" d="M48.0308 55.1924L39.6138 56.4846L44.4887 51.6519L48.0308 55.1924Z" fill="white"/>
<path id="Vector_19" d="M39.6138 57.2736C39.4739 57.2772 39.336 57.2396 39.2174 57.1654C39.0987 57.0912 39.0046 56.9837 38.9466 56.8564C38.8579 56.7357 38.8101 56.5898 38.8101 56.44C38.8101 56.2902 38.8579 56.1443 38.9466 56.0236L43.7793 51.1485C43.9259 51.0108 44.1196 50.9341 44.3207 50.9341C44.5219 50.9341 44.7155 51.0108 44.8621 51.1485L48.4058 54.6892C48.4766 54.8014 48.5141 54.9315 48.5141 55.0642C48.5141 55.1969 48.4766 55.3269 48.4058 55.4392C48.371 55.576 48.2976 55.6999 48.1942 55.7961C48.0909 55.8922 47.962 55.9566 47.823 55.9814L39.4904 57.2736H39.6138ZM44.4887 52.7314L41.7809 55.4392L46.448 54.7314L44.4887 52.7314Z" fill="#FF6C37"/>
<path id="Vector_20" d="M48.0309 55.1892L42.156 55.9392C41.9988 55.9749 41.8342 55.9589 41.6868 55.8938C41.5393 55.8286 41.4168 55.7176 41.3374 55.5773C41.2579 55.437 41.2258 55.2749 41.2458 55.1149C41.2657 54.9549 41.3367 54.8056 41.4482 54.6892L44.4903 51.647L48.0309 55.1892Z" fill="white"/>
<path id="Vector_21" d="M41.9888 56.7328C41.7165 56.7302 41.4497 56.6556 41.2156 56.5164C40.9815 56.3773 40.7884 56.1786 40.656 55.9407C40.4969 55.6554 40.4352 55.3261 40.4803 55.0026C40.5254 54.6792 40.6749 54.3793 40.906 54.1485L43.9482 51.1063C44.0948 50.9686 44.2884 50.8919 44.4896 50.8919C44.6907 50.8919 44.8844 50.9686 45.031 51.1063L48.5731 54.6485C48.6785 54.7483 48.7526 54.8765 48.7865 55.0176C48.8204 55.1587 48.8127 55.3066 48.7642 55.4434C48.7158 55.5802 48.6287 55.6999 48.5135 55.7882C48.3983 55.8765 48.26 55.9294 48.1153 55.9407L42.2826 56.6907L41.9888 56.7328ZM41.9888 55.1907L46.406 54.6485L44.4482 52.6907L41.9482 55.1907H41.9888ZM78.2385 25.0659C78.16 24.9344 78.036 24.8363 77.8899 24.7902C77.7439 24.7441 77.5861 24.7533 77.4463 24.8159C77.3773 24.8508 77.3161 24.8992 77.2662 24.9583C77.2162 25.0173 77.1787 25.0858 77.1557 25.1596C77.1093 25.3086 77.1239 25.4698 77.1963 25.608C77.4885 26.2221 77.4072 26.9487 76.9885 27.483C76.9365 27.5345 76.8957 27.5962 76.8688 27.6643C76.8419 27.7323 76.8295 27.8052 76.8322 27.8783C76.8338 28.0249 76.8894 28.1657 76.9885 28.2737C77.0954 28.3159 77.2144 28.3159 77.3213 28.2737C77.4183 28.298 77.5202 28.2954 77.6158 28.2659C77.7114 28.2364 77.7971 28.1813 77.8635 28.1065C78.2066 27.6864 78.4239 27.1778 78.4902 26.6395C78.5566 26.1012 78.4693 25.5551 78.2385 25.0643V25.0659Z" fill="#FF6C37"/>
</g>
</g>
</svg>
