<svg width="100" height="100" viewBox="0 0 100 100" fill="none" xmlns="http://www.w3.org/2000/svg">
<g id="python">
<g id="python_2">
<path id="Vector" d="M49.6397 0C24.2535 0 25.8385 11.009 25.8385 11.009L25.8667 22.4146H50.0924V25.8389H16.2447C16.2447 25.8389 0 23.9966 0 49.6111C0 75.2264 14.1788 74.318 14.1788 74.318H22.6406V62.4315C22.6406 62.4315 22.1844 48.2528 36.593 48.2528H60.6205C60.6205 48.2528 74.1199 48.4709 74.1199 35.206V13.2734C74.1199 13.2734 76.1702 0 49.6397 0ZM36.2817 7.67007C36.8542 7.66955 37.4211 7.78193 37.9501 8.00076C38.4791 8.2196 38.9598 8.5406 39.3646 8.9454C39.7693 9.35019 40.0903 9.83084 40.3092 10.3598C40.528 10.8888 40.6404 11.4558 40.6399 12.0282C40.6404 12.6007 40.528 13.1677 40.3092 13.6967C40.0903 14.2256 39.7693 14.7063 39.3646 15.1111C38.9598 15.5159 38.4791 15.8369 37.9501 16.0557C37.4211 16.2746 36.8542 16.3869 36.2817 16.3864C35.7092 16.3869 35.1423 16.2746 34.6133 16.0557C34.0843 15.8369 33.6037 15.5159 33.1989 15.1111C32.7941 14.7063 32.4731 14.2256 32.2542 13.6967C32.0354 13.1677 31.923 12.6007 31.9235 12.0282C31.923 11.4558 32.0354 10.8888 32.2542 10.3598C32.4731 9.83084 32.7941 9.35019 33.1989 8.9454C33.6037 8.5406 34.0843 8.2196 34.6133 8.00076C35.1423 7.78193 35.7092 7.66955 36.2817 7.67007Z" fill="url(#paint0_linear_790_6849)"/>
<path id="Vector_2" d="M50.3607 99.4801C75.747 99.4801 74.1619 88.4711 74.1619 88.4711L74.1337 77.0658H49.9076V73.6415H83.7553C83.7553 73.6415 100 75.4838 100 49.8685C100 24.2535 85.8213 25.1619 85.8213 25.1619H77.3594V37.0481C77.3594 37.0481 77.8156 51.2268 63.407 51.2268H39.3795C39.3795 51.2268 25.8801 51.0087 25.8801 64.274V86.207C25.8801 86.207 23.8302 99.4801 50.3603 99.4801H50.3607ZM63.7187 91.8108C63.1462 91.8113 62.5793 91.6989 62.0503 91.4801C61.5213 91.2612 61.0407 90.9402 60.6359 90.5354C60.2311 90.1306 59.9101 89.65 59.6912 89.121C59.4724 88.592 59.36 88.0251 59.3605 87.4526C59.36 86.8801 59.4723 86.3131 59.6911 85.784C59.9099 85.255 60.2309 84.7743 60.6357 84.3695C61.0405 83.9646 61.5212 83.6436 62.0502 83.4247C62.5792 83.2059 63.1462 83.0935 63.7187 83.094C64.2912 83.0935 64.8581 83.2059 65.3871 83.4247C65.9161 83.6435 66.3968 83.9645 66.8015 84.3693C67.2063 84.7741 67.5273 85.2548 67.7462 85.7838C67.965 86.3128 68.0774 86.8797 68.0769 87.4522C68.0774 88.0247 67.965 88.5916 67.7462 89.1206C67.5273 89.6496 67.2063 90.1302 66.8015 90.535C66.3968 90.9398 65.9161 91.2608 65.3871 91.4797C64.8581 91.6985 64.2912 91.8109 63.7187 91.8104V91.8108Z" fill="url(#paint1_linear_790_6849)"/>
</g>
</g>
<defs>
<linearGradient id="paint0_linear_790_6849" x1="9.60996" y1="8.94762" x2="59.1669" y2="58.0102" gradientUnits="userSpaceOnUse">
<stop stop-color="#387EB8"/>
<stop offset="1" stop-color="#366994"/>
</linearGradient>
<linearGradient id="paint1_linear_790_6849" x1="40.0281" y1="40.4527" x2="93.2466" y2="90.7618" gradientUnits="userSpaceOnUse">
<stop stop-color="#FFE052"/>
<stop offset="1" stop-color="#FFC331"/>
</linearGradient>
</defs>
</svg>
