<?xml version="1.0" standalone="yes"?>
<svg xmlns="http://www.w3.org/2000/svg" width="512" height="512">
<path style="fill:#ffffff; stroke:none;" d="M0 0L0 361L67 361C63.2416 352.109 55.9494 344.56 51.3086 336C42.0146 318.856 35.2917 300.342 32.4275 281C23.8495 223.074 46.899 163.108 93 126.665C104.367 117.679 116.838 110.335 130 104.309C136.443 101.359 144.065 100.036 150 96.1505C171.923 81.7961 189.362 60.7953 211 46L211 78C211 81.2785 209.824 87.5325 212.028 90.2577C214.195 92.9377 220.836 92.548 224 93.081C233.167 94.6254 242.208 96.9972 251 100.003C274.963 108.196 298.797 123.197 315.83 142C356.382 186.764 372.252 248.959 353.33 307C346.789 327.064 332.949 342.198 325 361L422 361L422 316L512 390L512 0L0 0z"/>
<path style="fill:#81e983; stroke:none;" d="M211 196L211 153C261.171 162.729 300 203.82 300 256L361 256C361 203.56 337.17 154.641 295 122.899C278.885 110.769 259.572 101.338 240 96.3742C234.075 94.8717 215.404 94.4722 212.028 89.5663C209.904 86.4803 211 80.5569 211 77L211 46C202.502 49.8924 195.16 57.9461 188 63.9197C173.117 76.3372 158.315 88.7282 143.961 101.718C139.736 105.54 123.207 115.015 123.207 121C123.207 126.827 139.738 136.695 144 140.247C158.265 152.135 172.314 164.267 186.285 176.5C193.776 183.058 201.926 191.844 211 196z"/>
<path style="fill:#a09de5; stroke:none;" d="M31 256L73 256L91 258L92 258C92 211.709 120.035 173.669 163 157C155.554 146.648 142.78 138.726 133 130.586C130.359 128.388 123.045 124.213 124.207 120.035C126.526 111.697 142.514 104.799 148 98C132.661 100.265 116.743 109.561 104 118.004C57.5546 148.776 31 200.799 31 256z"/>
<path style="fill:#70dc81; stroke:none;" d="M249 99L250 100L249 99M252 100L253 101L252 100z"/>
<path style="fill:#7985eb; stroke:none;" d="M136 101L137 102L136 101z"/>
<path style="fill:#70dc81; stroke:none;" d="M144 101L145 102L144 101M255 101L256 102L255 101M143 102L144 103L143 102M138 106L139 107L138 106M137 107L138 108L137 107M132 111L133 112L132 111M131 112L132 113L131 112M126 116L127 117L126 116M125 117L126 118L125 117M286 117L287 118L286 117M125 124L126 125L125 124M126 125L127 126L126 125z"/>
<path style="fill:#ffb64e; stroke:none;" d="M91 127L92 128L91 127z"/>
<path style="fill:#70dc81; stroke:none;" d="M301 128L302 129L301 128M131 129L132 130L131 129M132 130L133 131L132 130z"/>
<path style="fill:#ffb64e; stroke:none;" d="M84 133L85 134L84 133M83 134L84 135L83 134z"/>
<path style="fill:#70dc81; stroke:none;" d="M137 134L138 135L137 134M308 134L309 135L308 134M138 135L139 136L138 135M312 138L313 139L312 138M143 139L144 140L143 139M144 140L145 141L144 140M314 140L315 141L314 140z"/>
<path style="fill:#7985eb; stroke:none;" d="M74 143L75 144L74 143z"/>
<path style="fill:#ffb64e; stroke:none;" d="M73 144L74 145L73 144z"/>
<path style="fill:#70dc81; stroke:none;" d="M149 144L150 145L149 144M150 145L151 146L150 145M155 149L156 150L155 149M156 150L157 151L156 150M323 150L324 151L323 150z"/>
<path style="fill:#ffb64e; stroke:none;" d="M67 151L68 152L67 151z"/>
<path style="fill:#ffffff; stroke:none;" d="M211 153L211 196C199.012 187.803 188.155 177.388 177 168.08C173.117 164.84 167.373 157.901 162 157.693C155.838 157.454 147.118 163.402 142 166.453C122.147 178.288 107.215 196.678 98.6042 218C75.3095 275.679 111.242 342.674 171 357.525C183.145 360.543 196.583 361.239 209 359.714C287.247 350.104 326.097 256.907 279.985 194C272.053 183.18 261.676 173.553 250 166.873C238 160.008 224.765 154.778 211 153z"/>
<path style="fill:#70dc81; stroke:none;" d="M161 154L162 155L161 154M162 155L163 156L162 155M327 155L328 156L327 155M163 156L164 157L163 156M226 156L227 157L226 156M241 162L242 163L241 162M243 163L244 164L243 163M172 164L173 165L172 164M336 168L337 169L336 168M178 169L179 170L178 169z"/>
<path style="fill:#ffb64e; stroke:none;" d="M133 172L134 173L133 172z"/>
<path style="fill:#70dc81; stroke:none;" d="M259 173L260 174L259 173M339 173L340 174L339 173M184 174L185 175L184 174z"/>
<path style="fill:#7985eb; stroke:none;" d="M128 176L129 177L128 176z"/>
<path style="fill:#70dc81; stroke:none;" d="M266 179L267 180L266 179M273 186L274 187L273 186z"/>
<path style="fill:#ffb64e; stroke:none;" d="M116 188L117 189L116 188z"/>
<path style="fill:#70dc81; stroke:none;" d="M281 196L282 197L281 196M294 221L295 222L294 221z"/>
<path style="fill:#7985eb; stroke:none;" d="M33 224L34 225L33 224z"/>
<path style="fill:#70dc81; stroke:none;" d="M295 224L296 225L295 224M359 230L360 231L359 230M297 231L298 232L297 231M299 241L300 242L299 241z"/>
<path style="fill:#7985eb; stroke:none;" d="M31 256C31 284.114 37.4578 310.03 50.4244 335C54.4005 342.657 60.3562 355.647 68.1698 359.972C76.1834 364.408 93.907 361 103 361L190 361C181.307 357.32 170.228 357.59 161 354.302C138.812 346.396 120.383 330.464 107.464 311C100.538 300.567 95.4023 287.367 93.2353 275.039C92.543 271.101 93.5577 259.335 90.2045 256.934C86.651 254.391 78.1939 256 74 256L31 256z"/>
<path style="fill:#70dc81; stroke:none;" d="M300 256C300 296.946 275.665 333.003 239 350.742C229.801 355.192 220.07 357.84 210 359.41C206.664 359.93 199.303 358.73 197.028 361.603C194.338 365 196 373.875 196 378L196 421C286.819 421 361 346.375 361 256L300 256z"/>
<path style="fill:#a09de5; stroke:none;" d="M91 259L92 260L91 259M91 261L92 262L91 261M31 271L32 272L31 271M92 271L93 272L92 271M93 276L94 277L93 276M32 281L33 282L32 281M94 281L95 282L94 281M33 286L34 287L33 286z"/>
<path style="fill:#81e983; stroke:none;" d="M358 287L359 288L358 287z"/>
<path style="fill:#a09de5; stroke:none;" d="M35 296L36 297L35 296M101 300L102 301L101 300M102 302L103 303L102 302M37 303L38 304L37 303M105 308L106 309L105 308M107 311L108 312L107 311M41 315L42 316L41 315z"/>
<path style="fill:#ed5569; stroke:none;" d="M422 316L422 361L354 361C345.556 361 332.016 358.406 324.17 361.603C314.421 365.576 305.568 379.744 297 386.349C274.062 404.03 242.663 419.754 213 420L213 421L422 421L422 466C430.854 461.945 438.535 453.467 446 447.247L490 410.586C494.487 406.852 510.793 397.209 510.793 391C510.793 384.791 494.487 375.148 490 371.414L446 334.753C438.535 328.533 430.854 320.055 422 316z"/>
<path style="fill:#81e983; stroke:none;" d="M116 323L117 324L116 323z"/>
<path style="fill:#a09de5; stroke:none;" d="M49 332L50 333L49 332M129 336L130 337L129 336M130 337L131 338L130 337M52 338L53 339L52 338z"/>
<path style="fill:#81e983; stroke:none;" d="M133 339L134 340L133 339z"/>
<path style="fill:#a09de5; stroke:none;" d="M55 343L56 344L55 343M140 344L141 345L140 344M57 346L58 347L57 346M151 350L152 351L151 350M158 353L159 354L158 353M64 356L65 357L64 356M65 357L66 358L65 357M170 357L171 358L170 357M175 358L176 359L175 358M180 359L181 360L180 359z"/>
<path style="fill:#81e983; stroke:none;" d="M67 360L68 361L67 360z"/>
<path style="fill:#a09de5; stroke:none;" d="M190 360L191 361L190 360z"/>
<path style="fill:#7985eb; stroke:none;" d="M191 360L191 361L195 361L191 360z"/>
<path style="fill:#ffb64e; stroke:none;" d="M0 361L0 421L196 421L196 361L0 361z"/>
<path style="fill:#a09de5; stroke:none;" d="M321 363L322 364L321 363M320 364L321 365L320 364M319 365L320 366L319 365M305 379L306 380L305 379M304 380L305 381L304 380M303 381L304 382L303 381M298 385L299 386L298 385M294 388L295 389L294 388M290 391L291 392L290 391z"/>
<path style="fill:#ffffff; stroke:none;" d="M511 392C483.414 417.406 452.945 444.841 422 466L422 421L0 422L0 512L512 512L512 428L511 392z"/>
<path style="fill:#a09de5; stroke:none;" d="M287 393L288 394L287 393M284 395L285 396L284 395M279 398L280 399L279 398M277 399L278 400L277 399M272 402L273 403L272 402M270 403L271 404L270 403M268 404L269 405L268 404M266 405L267 406L266 405M259 408L260 409L259 408M254 410L255 411L254 410M251 411L252 412L251 411M248 412L249 413L248 412M245 413L246 414L245 413M242 414L243 415L242 414M238 415L239 416L238 415M234.667 416.333L235.333 416.667L234.667 416.333M230 417L231 418L230 417M225 418L226 419L225 418M218 419L218 420L221 420L218 419M208 420L208 421L213 421L208 420z"/>
<path style="fill:#ed5569; stroke:none;" d="M0 421L0 422L196 422L177 421L138 421L0 421z"/>
</svg>
